<svg width="18" height="19" viewBox="0 0 18 19" fill="black" xmlns="http://www.w3.org/2000/svg">
<path d="M4.50005 8.05046V11.2005M13.5 8.05046V11.2005M3.15005 14.3505H14.85C15.5956 14.3505 16.2 13.746 16.2 13.0005V6.70046C16.2 5.95488 15.5956 5.35046 14.85 5.35046H3.15005C2.40446 5.35046 1.80005 5.95488 1.80005 6.70046V13.0005C1.80005 13.746 2.40446 14.3505 3.15005 14.3505ZM10.8 9.85046C10.8 10.8446 9.99416 11.6505 9.00005 11.6505C8.00594 11.6505 7.20005 10.8446 7.20005 9.85046C7.20005 8.85635 8.00594 8.05046 9.00005 8.05046C9.99416 8.05046 10.8 8.85635 10.8 9.85046Z" stroke="#E8E8E8" stroke-width="2" stroke-linecap="round" stroke-linejoin="round"/>
</svg>
