<svg width="18" height="19" viewBox="0 0 18 19" fill="none" xmlns="http://www.w3.org/2000/svg">
<path d="M5.71858 14.7237C5.19419 14.897 4.90957 15.4626 5.08288 15.987C5.25618 16.5114 5.82177 16.796 6.34616 16.6227L5.71858 14.7237ZM10.3966 15.9617L10.3067 14.9658L10.3966 15.9617ZM13.0152 15.3848L13.4507 16.285L13.0152 15.3848ZM15.5173 13.1281L14.7428 12.4955H14.7428L15.5173 13.1281ZM13.806 11.7161L14.5101 12.4263V12.4263L13.806 11.7161ZM12.6537 12.8586L13.3577 13.5688L12.6537 12.8586ZM9.52379 12.3655C8.9715 12.3655 8.52379 12.8133 8.52379 13.3655C8.52379 13.9178 8.9715 14.3655 9.52379 14.3655V12.3655ZM15.2512 11.5743L14.6998 12.4085V12.4085L15.2512 11.5743ZM6.91801 11.1957L7.36216 12.0917L7.36216 12.0917L6.91801 11.1957ZM10.0501 10.9117L10.3111 9.94636L10.0501 10.9117ZM11.2732 11.2424L11.0121 12.2077L11.2732 11.2424ZM11.6607 12.6892L10.9566 11.9791V11.9791L11.6607 12.6892ZM10.2745 12.6554C9.88228 13.0443 9.87956 13.6774 10.2684 14.0696C10.6572 14.4618 11.2904 14.4645 11.6826 14.0757L10.2745 12.6554ZM6.34616 16.6227C6.34493 16.6231 6.35386 16.6201 6.37597 16.6164C6.39792 16.6127 6.42893 16.6089 6.47052 16.6064C6.55555 16.6013 6.66633 16.6026 6.80742 16.6126C7.09526 16.633 7.43624 16.6834 7.84242 16.7467C8.5965 16.8641 9.60906 17.0369 10.4866 16.9576L10.3067 14.9658C9.72947 15.0179 8.99631 14.9022 8.15016 14.7705C7.75622 14.7091 7.33345 14.6448 6.94848 14.6176C6.58384 14.5918 6.13019 14.5877 5.71858 14.7237L6.34616 16.6227ZM10.4866 16.9576C11.6036 16.8568 12.2166 16.882 13.4507 16.285L12.5797 14.4846C11.7311 14.8952 11.4976 14.8582 10.3067 14.9658L10.4866 16.9576ZM13.4507 16.285C14.5784 15.7394 15.6661 14.5266 16.2917 13.7608L14.7428 12.4955C14.1075 13.2732 13.265 14.153 12.5797 14.4846L13.4507 16.285ZM13.1019 11.006L11.9496 12.1485L13.3577 13.5688L14.5101 12.4263L13.1019 11.006ZM11.4193 12.3655H9.52379V14.3655H11.4193V12.3655ZM11.9496 12.1485C11.8104 12.2865 11.6198 12.3655 11.4193 12.3655V14.3655C12.1447 14.3655 12.8421 14.0799 13.3577 13.5688L11.9496 12.1485ZM15.8026 10.74C14.9542 10.1793 13.8251 10.289 13.1019 11.006L14.5101 12.4263C14.559 12.3778 14.6397 12.3687 14.6998 12.4085L15.8026 10.74ZM16.2917 13.7608C17.099 12.7726 16.7853 11.3895 15.8026 10.74L14.6998 12.4085C14.7358 12.4323 14.7468 12.4592 14.7493 12.4735C14.7506 12.4806 14.7498 12.4841 14.7496 12.4847C14.7495 12.4851 14.7494 12.4857 14.7488 12.4868C14.7482 12.4879 14.7467 12.4908 14.7428 12.4955L16.2917 13.7608ZM2.8319 11.4809H5.15951V9.48093H2.8319V11.4809ZM4.74142 11.0579V16.2502H6.74142V11.0579H4.74142ZM5.15951 15.8271H2.8319V17.8271H5.15951V15.8271ZM3.25 16.2502V11.0579H1.25V16.2502H3.25ZM2.8319 15.8271C3.05469 15.8271 3.25 16.0084 3.25 16.2502H1.25C1.25 17.1292 1.96637 17.8271 2.8319 17.8271V15.8271ZM4.74142 16.2502C4.74142 16.0084 4.93673 15.8271 5.15951 15.8271V17.8271C6.02505 17.8271 6.74142 17.1292 6.74142 16.2502H4.74142ZM5.15951 11.4809C4.93673 11.4809 4.74142 11.2996 4.74142 11.0579H6.74142C6.74142 10.1789 6.02505 9.48093 5.15951 9.48093V11.4809ZM2.8319 9.48093C1.96636 9.48093 1.25 10.1789 1.25 11.0579H3.25C3.25 11.2996 3.05469 11.4809 2.8319 11.4809V9.48093ZM6.47651 12.5307L7.36216 12.0917L6.47387 10.2998L5.58822 10.7388L6.47651 12.5307ZM8.73966 11.7694H8.97829V9.76939H8.73966V11.7694ZM9.78904 11.877L11.0121 12.2077L11.5342 10.2771L10.3111 9.94636L9.78904 11.877ZM10.9566 11.9791L10.2745 12.6554L11.6826 14.0757L12.3648 13.3994L10.9566 11.9791ZM11.0121 12.2077C10.923 12.1836 10.8772 12.0579 10.9566 11.9791L12.3648 13.3994C13.392 12.3809 12.9165 10.6508 11.5342 10.2771L11.0121 12.2077ZM8.97829 11.7694C9.25224 11.7694 9.5249 11.8056 9.78904 11.877L10.3111 9.94636C9.87664 9.82889 9.42844 9.76939 8.97829 9.76939V11.7694ZM7.36216 12.0917C7.78946 11.8799 8.26111 11.7694 8.73966 11.7694V9.76939C7.95348 9.76939 7.17777 9.95085 6.47387 10.2998L7.36216 12.0917ZM12.3062 6.44247C12.3062 7.15661 11.7199 7.75016 10.9785 7.75016V9.75016C12.8082 9.75016 14.3062 8.27735 14.3062 6.44247H12.3062ZM10.9785 7.75016C10.2372 7.75016 9.65093 7.15661 9.65093 6.44247H7.65093C7.65093 8.27735 9.14887 9.75016 10.9785 9.75016V7.75016ZM9.65093 6.44247C9.65093 5.72834 10.2372 5.13478 10.9785 5.13478V3.13478C9.14887 3.13478 7.65093 4.6076 7.65093 6.44247H9.65093ZM10.9785 5.13478C11.7199 5.13478 12.3062 5.72834 12.3062 6.44247H14.3062C14.3062 4.6076 12.8082 3.13478 10.9785 3.13478V5.13478ZM8.65093 5.44247C7.90959 5.44247 7.32332 4.84891 7.32332 4.13478H5.32332C5.32332 5.96965 6.82126 7.44247 8.65093 7.44247V5.44247ZM7.32332 4.13478C7.32332 3.42065 7.90959 2.82709 8.65093 2.82709V0.827087C6.82126 0.827087 5.32332 2.29991 5.32332 4.13478H7.32332ZM8.65093 2.82709C9.39227 2.82709 9.97854 3.42065 9.97854 4.13478H11.9785C11.9785 2.29991 10.4806 0.827087 8.65093 0.827087V2.82709Z" fill="white"/>
</svg>
