<svg width="18" height="19" viewBox="0 0 18 19" fill="none" xmlns="http://www.w3.org/2000/svg">
<path d="M4.50005 4.52819V7.67819M13.5 4.52819V7.67819M13.05 10.8282H14.85C15.5956 10.8282 16.2 10.2238 16.2 9.47819V3.17819C16.2 2.4326 15.5956 1.82819 14.85 1.82819H3.15005C2.40446 1.82819 1.80005 2.4326 1.80005 3.17819V9.47819C1.80005 10.2238 2.40446 10.8282 3.15005 10.8282H4.95005M6.45375 13.6824L8.99933 16.228M8.99933 16.228L11.3734 13.8539M8.99933 16.228L8.99944 11.0213M10.8 6.32819C10.8 7.3223 9.99416 8.12819 9.00005 8.12819C8.00594 8.12819 7.20005 7.3223 7.20005 6.32819C7.20005 5.33407 8.00594 4.52819 9.00005 4.52819C9.99416 4.52819 10.8 5.33407 10.8 6.32819Z" stroke="white" stroke-width="2" stroke-linecap="round" stroke-linejoin="round"/>
</svg>
